<svg width="72" height="72" viewBox="0 0 72 72" fill="none" xmlns="http://www.w3.org/2000/svg">
<path d="M23.4 6H48.6C58.2 6 66 13.8 66 23.4V48.6C66 53.2148 64.1668 57.6405 60.9037 60.9037C57.6405 64.1668 53.2148 66 48.6 66H23.4C13.8 66 6 58.2 6 48.6V23.4C6 18.7852 7.83321 14.3595 11.0963 11.0963C14.3595 7.83321 18.7852 6 23.4 6ZM22.8 12C19.9357 12 17.1886 13.1379 15.1632 15.1632C13.1379 17.1886 12 19.9357 12 22.8V49.2C12 55.17 16.83 60 22.8 60H49.2C52.0643 60 54.8114 58.8621 56.8368 56.8368C58.8621 54.8114 60 52.0643 60 49.2V22.8C60 16.83 55.17 12 49.2 12H22.8ZM51.75 16.5C52.7446 16.5 53.6984 16.8951 54.4017 17.5983C55.1049 18.3016 55.5 19.2554 55.5 20.25C55.5 21.2446 55.1049 22.1984 54.4017 22.9017C53.6984 23.6049 52.7446 24 51.75 24C50.7554 24 49.8016 23.6049 49.0983 22.9017C48.3951 22.1984 48 21.2446 48 20.25C48 19.2554 48.3951 18.3016 49.0983 17.5983C49.8016 16.8951 50.7554 16.5 51.75 16.5ZM36 21C39.9782 21 43.7936 22.5804 46.6066 25.3934C49.4196 28.2064 51 32.0218 51 36C51 39.9782 49.4196 43.7936 46.6066 46.6066C43.7936 49.4196 39.9782 51 36 51C32.0218 51 28.2064 49.4196 25.3934 46.6066C22.5804 43.7936 21 39.9782 21 36C21 32.0218 22.5804 28.2064 25.3934 25.3934C28.2064 22.5804 32.0218 21 36 21ZM36 27C33.6131 27 31.3239 27.9482 29.636 29.636C27.9482 31.3239 27 33.6131 27 36C27 38.3869 27.9482 40.6761 29.636 42.364C31.3239 44.0518 33.6131 45 36 45C38.3869 45 40.6761 44.0518 42.364 42.364C44.0518 40.6761 45 38.3869 45 36C45 33.6131 44.0518 31.3239 42.364 29.636C40.6761 27.9482 38.3869 27 36 27Z" fill="white"/>
</svg>
