<svg width="72" height="72" viewBox="0 0 72 72" fill="none" xmlns="http://www.w3.org/2000/svg">
<path d="M38.3541 52.7428C38.6687 53.0564 38.9184 53.4289 39.0887 53.8392C39.2591 54.2494 39.3468 54.6892 39.3468 55.1334C39.3468 55.5776 39.2591 56.0175 39.0887 56.4277C38.9184 56.8379 38.6687 57.2105 38.3541 57.5241L36.6835 59.1947C33.5178 62.3604 29.2242 64.1388 24.7472 64.1388C20.2703 64.1388 15.9767 62.3604 12.811 59.1947C9.64529 56.029 7.86682 51.7354 7.86682 47.2584C7.86682 42.7815 9.64529 38.4879 12.811 35.3222L19.5947 28.5413C22.6364 25.4921 26.7288 23.7213 31.0338 23.5916C35.3387 23.4619 39.5303 24.9832 42.75 27.8438C43.0824 28.1392 43.3534 28.4973 43.5474 28.8975C43.7415 29.2977 43.8548 29.7321 43.8809 30.1761C43.907 30.6201 43.8454 31.0649 43.6996 31.4851C43.5539 31.9052 43.3268 32.2926 43.0313 32.625C42.7358 32.9574 42.3778 33.2284 41.9776 33.4224C41.5774 33.6164 41.1429 33.7297 40.6989 33.7559C40.2549 33.782 39.8102 33.7204 39.39 33.5746C38.9698 33.4288 38.5824 33.2017 38.25 32.9063C36.3193 31.1915 33.8064 30.2793 31.2253 30.3562C28.6442 30.433 26.19 31.4931 24.3647 33.3197L17.5866 40.0922C15.6875 41.9913 14.6206 44.5671 14.6206 47.2528C14.6206 49.9386 15.6875 52.5143 17.5866 54.4134C19.4857 56.3126 22.0615 57.3795 24.7472 57.3795C27.433 57.3795 30.0087 56.3126 31.9079 54.4134L33.5785 52.7428C33.8919 52.429 34.2641 52.1801 34.6739 52.0102C35.0836 51.8404 35.5228 51.753 35.9663 51.753C36.4098 51.753 36.849 51.8404 37.2587 52.0102C37.6684 52.1801 38.0407 52.429 38.3541 52.7428ZM59.1891 12.8053C56.0208 9.64449 51.7282 7.86938 47.2529 7.86938C42.7775 7.86938 38.4849 9.64449 35.3166 12.8053L33.646 14.4759C33.0119 15.11 32.6557 15.9699 32.6557 16.8666C32.6557 17.7632 33.0119 18.6232 33.646 19.2572C34.28 19.8912 35.1399 20.2474 36.0366 20.2474C36.9333 20.2474 37.7932 19.8912 38.4272 19.2572L40.0979 17.5866C41.997 15.6874 44.5727 14.6205 47.2585 14.6205C49.9442 14.6205 52.52 15.6874 54.4191 17.5866C56.3182 19.4857 57.3851 22.0614 57.3851 24.7472C57.3851 27.4329 56.3182 30.0087 54.4191 31.9078L47.6382 38.6916C45.8113 40.5173 43.3557 41.5759 40.774 41.6507C38.1922 41.7255 35.6795 40.8107 33.75 39.0938C33.4176 38.7983 33.0303 38.5712 32.6101 38.4254C32.1899 38.2796 31.7451 38.218 31.3012 38.2441C30.8572 38.2703 30.4227 38.3836 30.0225 38.5776C29.6223 38.7716 29.2643 39.0426 28.9688 39.375C28.6733 39.7074 28.4462 40.0948 28.3004 40.5149C28.1547 40.9351 28.0931 41.3799 28.1192 41.8239C28.1453 42.2679 28.2586 42.7023 28.4526 43.1025C28.6467 43.5027 28.9176 43.8608 29.25 44.1563C32.4675 47.0162 36.6563 48.5384 40.9592 48.4114C45.2621 48.2843 49.3538 46.5176 52.3969 43.4728L59.1807 36.6919C62.3452 33.5244 64.1234 29.2306 64.125 24.7532C64.1266 20.2757 62.3514 15.9807 59.1891 12.8109V12.8053Z" fill="white"/>
</svg>
