<?xml version="1.0" encoding="UTF-8"?>
<svg fill="none" viewBox="0 0 1996 1970" xmlns="http://www.w3.org/2000/svg">
<g clip-path="url(#a)" stroke="#6936F5">
<path d="m311.91 95.744c-39.675 42.806-16.532 916.18 0 1347.5v168.86c0 105.64 65.797 112.75 98.696 103.09 81.019-2.78 259.56-6.67 325.55 0 65.994 6.68 107.37-65.94 119.81-103.09v-453.09h535.71v523.29c0 72.65 156.48 68.56 234.71 57.44 75.62-1.31 241.68-14.63 301-57.44 59.32-42.8 44.03-119.61 28.97-152.67-1.47-420.2-3.53-1288.7 0-1401 3.54-112.32-45.34-107.02-70.22-90.325h-440.94l-53.52 57.435-136.01 173.29-136.02 242.99-239.13-445.24-53.522-28.472h-201.81l-222.93-10.309c-16.367 1.3091-50.674 24.938-90.348 67.744z" fill="#fff"/>
<path d="m841.56 795.16-7.518 1.904v801.84c0 28.41-6.3 47.93-17.962 59.59-11.981 11.98-31.67 18.42-60.042 18.42h-339.41c-28.384 0-47.888-6.44-59.553-18.38l-0.033-0.04-0.034-0.03c-11.943-11.67-18.385-31.17-18.385-59.56v-1476.1c0-28.374 6.438-48.063 18.419-60.044 11.662-11.663 31.181-17.963 59.586-17.963h366.74c23.71 0 43.084 5.1818 58.374 15.275 15.083 10.157 29.43 27.04 42.916 51.012 2e-3 5e-3 5e-3 9e-3 7e-3 0.014l205 371.28 0.01 9e-3c7.61 13.709 14.3 23.885 20.07 30.306 6.04 7.072 14.35 10.477 24.42 10.477h20.51c10.1 0 18.52-3.416 24.84-10.436l0.03-0.042 0.04-0.043c5.43-6.385 11.96-16.539 19.58-30.262l0.01-0.013 0.01-0.012 202.71-371.27c0-6e-3 0.01-0.013 0.01-0.019 13.48-23.971 27.83-40.852 42.91-51.009 15.29-10.092 34.67-15.273 58.38-15.273h369.02c28.36 0 48.06 6.284 60.04 17.964 11.68 11.983 17.96 31.676 17.96 60.043v1476.1c0 28.41-6.3 47.93-17.96 59.59-11.98 11.98-31.67 18.42-60.04 18.42h-350.8c-28.38 0-47.89-6.44-59.55-18.38l-0.07-0.07c-11.94-11.67-18.39-31.17-18.39-59.56v-801.84l-7.51-1.904-134.4 248.3-0.01 0.02-0.01 0.01c-13.43 25.38-29.23 43.27-47.26 54.02l-0.01 0.01h-0.01c-18.35 11.07-41.58 16.74-69.91 16.74h-91.12c-28.33 0-51.4-5.67-69.43-16.72l-0.04-0.02-0.03-0.02c-18.32-10.76-34.264-28.64-47.692-54.01l-8e-3 -0.01-9e-3 -0.02-134.4-248.3zm-10.073 891.12 0.024-0.02 0.023-0.02c11.146-9.56 19.563-21.49 25.257-35.73l0.014-0.03 0.014-0.04c5.382-14.24 8.003-31.46 8.003-51.53v-205.57h25.612c21.582 0 40.702-2.77 57.296-8.4 16.268-5.32 30.698-13.47 43.251-24.45 0.013-0.01 0.025-0.02 0.037-0.03l127.76-106.11v592.86c0 36.91 8.14 64.72 25.26 82.5 16.92 17.88 45.16 26.29 83.53 26.29h350.8c15.59 0 30.16-2.34 43.68-7.06h0.02l0.01-0.01c12.94-4.62 22.93-10.14 29.6-16.75l295.99-245.9 0.04-0.04c11.15-9.56 19.57-21.49 25.26-35.73l0.01-0.03 0.02-0.04c5.38-14.24 8-31.46 8-51.53v-1476.1c0-36.946-8.45-64.781-26.23-82.558-17.77-17.776-45.61-26.229-82.55-26.229h-369.02c-18.53 0-34.5 2.3121-47.8 7.0616-13.48 4.704-26.45 11.742-38.89 21.074l-0.08 0.0642-0.09 0.0687-293.78 245.96c-0.01 0.01-0.02 0.019-0.03 0.028-7.94 6.358-15.32 14.55-22.16 24.505-7.06 10.119-13.65 20.546-19.78 31.278l-0.01 0.012-0.01 0.011-16.95 30.146-151.44-278.4-0.025-0.0467-0.027-0.046c-16.879-29.157-35.036-50.243-54.596-62.862l-0.012-0.0079-0.012-0.0078c-19.93-12.654-44.719-18.847-74.126-18.847h-366.74c-15.505 0-29.852 1.8606-43.013 5.621l-0.029 0.0084-0.029 0.0089c-13.366 4.0409-24.204 9.2465-32.321 15.74l-0.042 0.0335-0.041 0.0346-293.85 248.3-0.0108 9e-3 -0.0107 9e-3c-11.153 9.56-19.425 21.505-24.815 35.757-5.6987 14.264-8.4722 31.494-8.4722 51.565v1476.1c0 36.95 8.4525 64.78 26.228 82.56s45.61 26.23 82.556 26.23h339.41c15.591 0 30.163-2.34 43.686-7.06h0.014l0.014-0.01c12.94-4.62 22.93-10.14 29.596-16.75l295.99-245.9z" fill="#6936F5" stroke-width="8"/>
<path d="m1249.4 706.2-0.01 4e-3c-25.84 39.518-44.62 64.992-56.44 76.805-11.06 11.058-29.52 17.052-56.41 17.052s-45.35-5.994-56.41-17.052c-11.82-11.813-30.6-37.287-56.44-76.805l-0.01-4e-3 -277.92-423.6c-9.389-15.622-20.559-26.611-33.645-32.498l-0.038-0.018-0.039-0.016c-12.603-5.355-25.285-8.063-38.019-8.063h-38.734c-20.502 0-36.514 5.857-47.225 18.235-10.936 12.592-16.015 31.655-16.015 56.376v1163.4h30.785v-1163.4c0-11.627 2.176-22.133 6.466-31.578 3.636-7.733 11.618-12.255 25.989-12.255h34.177c10.244 0 19.34 1.461 27.34 4.314 6.825 2.537 14.875 10.574 23.913 25.633l0.046 0.077 0.05 0.076 277.97 419.11 5e-3 8e-3c27.337 40.995 48.467 69.348 63.317 84.816 15.39 16.351 40.58 24.02 74.44 24.02 33.88 0 59.21-7.679 74.88-24.007l0.02-0.015 0.01-0.015c14.53-15.452 35.5-43.795 62.85-84.799v-8e-3l277.97-419.11 0.05-0.076 0.05-0.077c4.47-7.452 8.68-13.285 12.62-17.577 3.96-4.319 7.47-6.89 10.5-8.101 7-2.8 15.59-4.269 25.85-4.269h34.18c14.3 0 22.95 4.501 27.47 12.477 4.83 9.395 7.27 19.822 7.27 31.356v1163.4h30.78v-1163.4c0-24.7-4.92-43.744-15.52-56.332l-0.04-0.044-0.04-0.042c-11.05-12.392-28-18.193-49.92-18.193h-38.73c-12.74 0-25.01 2.71-36.76 8.11l-0.02 9e-3 -0.02 0.01c-12.47 5.903-23.31 16.893-32.66 32.465l-277.93 423.6z" fill="#6936F5" stroke-width="8"/>
</g>
<defs>
<clipPath id="a">
<rect width="1995.5" height="1970" fill="#fff"/>
</clipPath>
</defs>
</svg>
